<?xml version="1.0" encoding="utf-8"?>
<!-- Generator: Adobe Illustrator 27.2.0, SVG Export Plug-In . SVG Version: 6.00 Build 0)  -->
<svg version="1.1" id="Layer_1" xmlns="http://www.w3.org/2000/svg" xmlns:xlink="http://www.w3.org/1999/xlink" x="0px" y="0px"
	 width="1122px" height="1122px" viewBox="0 0 1122 1122" enable-background="new 0 0 1122 1122" xml:space="preserve">
<g id="BG">
</g>
<g id="Object">
	<g>
		<g>
			<circle fill="#F6D738" cx="561" cy="561" r="551.042"/>
		</g>
		<g>
			<circle fill="#F3CC30" cx="561" cy="561" r="467.662"/>
		</g>
		<g>
			<path fill="#EDBD31" d="M805.675,161.849c46.572,72.708,73.576,159.151,73.576,251.905c0,258.284-209.38,467.662-467.662,467.662
				c-89.703,0-173.492-25.275-244.675-69.063C250.028,942.109,395.47,1028.11,561,1028.11c258.283,0,467.662-209.38,467.662-467.662
				C1028.662,391.867,939.451,244.141,805.675,161.849z"/>
		</g>
		<g>
			<path fill="#F7DB5E" d="M175.26,603.79c0-227.996,184.827-412.823,412.823-412.823c133.267,0,251.763,63.166,327.243,161.172
				C844.041,228.384,710.429,145.07,557.355,145.07c-227.996,0-412.823,184.827-412.823,412.823
				c0,94.731,31.929,181.99,85.583,251.654C195.223,748.974,175.26,678.715,175.26,603.79z"/>
		</g>
		<path fill="#D49A34" d="M599.604,259.154v59.58c23.909,3.851,43.467,11.755,58.667,23.71c15.2,11.958,29.685,30.298,43.467,55.019
			l-59.273,33.135c-17.835-32.42-41.142-48.637-69.914-48.637c-17.835,0-32.632,5.273-44.38,15.808
			c-11.755,10.538-17.63,23.71-17.63,39.515c0,14.391,4.759,26.346,14.287,35.869c9.318,9.322,28.163,20.367,56.538,33.132
			c24.517,11.147,44.783,21.636,60.795,31.461c16.007,9.83,28.066,19.301,36.173,28.422c22.897,24.727,34.35,54.615,34.35,89.672
			c0,34.453-10.335,64.851-31.006,91.192c-20.471,26.143-47.831,43.773-82.073,52.893v62.923h-53.197v-61.101
			c-39.718-6.487-70.016-20.162-90.888-41.034c-20.874-20.87-36.277-53.091-46.204-96.664l66.875-13.983
			c9.12,30.806,20.263,52.792,33.439,65.962c13.779,12.567,32.115,18.848,55.019,18.848c22.29,0,40.932-7.192,55.93-21.582
			c14.79-14.183,22.191-32.526,22.191-55.021c0-20.061-6.186-36.173-18.543-48.332c-6.284-5.875-15.556-12.508-27.814-19.909
			c-12.262-7.395-27.918-15.45-46.964-24.166c-39.316-17.63-65.155-33.842-77.512-48.636
			c-19.657-22.087-29.484-48.533-29.484-79.338c0-14.593,2.326-28.167,6.989-40.734c4.662-12.564,11.401-23.961,20.214-34.198
			c8.817-10.229,19.707-19.096,32.679-26.598c12.966-7.494,27.661-13.374,44.075-17.63v-59.58h53.193V259.154z"/>
	</g>
</g>
</svg>
